<?xml version="1.0" encoding="UTF-8" standalone="no"?>
<!-- Created with Inkscape (http://www.inkscape.org/) -->

<svg
   xmlns:dc="http://purl.org/dc/elements/1.1/"
   xmlns:cc="http://creativecommons.org/ns#"
   xmlns:rdf="http://www.w3.org/1999/02/22-rdf-syntax-ns#"
   xmlns:svg="http://www.w3.org/2000/svg"
   xmlns="http://www.w3.org/2000/svg"
   xmlns:sodipodi="http://sodipodi.sourceforge.net/DTD/sodipodi-0.dtd"
   xmlns:inkscape="http://www.inkscape.org/namespaces/inkscape"
   version="1.1"
   id="svg2"
   xml:space="preserve"
   width="346.11307mm"
   height="203.2381mm"
   viewBox="0 0 1308.1439 768.14398"
   sodipodi:docname="14in.svg"
   inkscape:version="0.92.5 (2060ec1f9f, 2020-04-08)"><metadata
     id="metadata8"><rdf:RDF><cc:Work
         rdf:about=""><dc:format>image/svg+xml</dc:format><dc:type
           rdf:resource="http://purl.org/dc/dcmitype/StillImage" /><dc:title></dc:title></cc:Work></rdf:RDF></metadata><defs
     id="defs6"><clipPath
       clipPathUnits="userSpaceOnUse"
       id="clipPath26"><path
         d="M 0,864 H 1728 V 0 H 0 Z"
         id="path24"
         inkscape:connector-curvature="0" /></clipPath><clipPath
       clipPathUnits="userSpaceOnUse"
       id="clipPath100"><path
         d="M 0,864 H 1728 V 0 H 0 Z"
         id="path98"
         inkscape:connector-curvature="0" /></clipPath></defs><sodipodi:namedview
     pagecolor="#ffffff"
     bordercolor="#666666"
     borderopacity="1"
     objecttolerance="10"
     gridtolerance="10"
     guidetolerance="10"
     inkscape:pageopacity="0"
     inkscape:pageshadow="2"
     inkscape:window-width="2560"
     inkscape:window-height="1375"
     id="namedview4"
     showgrid="false"
     inkscape:zoom="1.0558587"
     inkscape:cx="781.83885"
     inkscape:cy="367.83351"
     inkscape:window-x="0"
     inkscape:window-y="0"
     inkscape:window-maximized="1"
     inkscape:current-layer="g10"
     units="mm"
     inkscape:document-units="mm" /><g
     id="g10"
     inkscape:groupmode="layer"
     inkscape:label="PDF ART CUT 14INCH FULL NOIR 8 24MM"
     transform="matrix(1.3333333,0,0,-1.3333333,-499.26132,958.73864)"
     style="display:inline"><path
       inkscape:connector-curvature="0"
       id="path104"
       style="fill:none;stroke:#090000;stroke-width:0.108;stroke-linecap:round;stroke-linejoin:round;stroke-miterlimit:10;stroke-dasharray:none;stroke-opacity:1"
       d="m 701.1572,489.6943 c 0,18.865 -15.292,34.158 -34.157,34.158 -18.865,0 -34.157,-15.293 -34.157,-34.158 0,-18.865 15.292,-34.157 34.157,-34.157 18.865,0 34.157,15.292 34.157,34.157 z" /><path
       inkscape:connector-curvature="0"
       id="path108"
       style="fill:none;stroke:#090000;stroke-width:0.108;stroke-linecap:round;stroke-linejoin:round;stroke-miterlimit:10;stroke-dasharray:none;stroke-opacity:1"
       d="m 871.3779,170 c 0,3.522 -2.855,6.378 -6.378,6.378 -3.522,0 -6.378,-2.856 -6.378,-6.378 0,-3.522 2.856,-6.378 6.378,-6.378 3.523,0 6.378,2.856 6.378,6.378 z" /><path
       inkscape:connector-curvature="0"
       id="path112"
       style="fill:none;stroke:#090000;stroke-width:0.108;stroke-linecap:round;stroke-linejoin:round;stroke-miterlimit:10;stroke-dasharray:none;stroke-opacity:1"
       d="m 871.3779,692 c 0,3.522 -2.855,6.378 -6.378,6.378 -3.522,0 -6.378,-2.856 -6.378,-6.378 0,-3.522 2.856,-6.378 6.378,-6.378 3.523,0 6.378,2.856 6.378,6.378 z" /><path
       inkscape:connector-curvature="0"
       id="path116"
       style="fill:none;stroke:#090000;stroke-width:0.108;stroke-linecap:round;stroke-linejoin:round;stroke-miterlimit:10;stroke-dasharray:none;stroke-opacity:1"
       d="m 407.8779,170 c 0,3.522 -2.855,6.378 -6.378,6.378 -3.522,0 -6.378,-2.856 -6.378,-6.378 0,-3.522 2.856,-6.378 6.378,-6.378 3.523,0 6.378,2.856 6.378,6.378 z" /><path
       inkscape:connector-curvature="0"
       id="path120"
       style="fill:none;stroke:#090000;stroke-width:0.108;stroke-linecap:round;stroke-linejoin:round;stroke-miterlimit:10;stroke-dasharray:none;stroke-opacity:1"
       d="m 1334.8779,170 c 0,3.522 -2.855,6.378 -6.378,6.378 -3.522,0 -6.378,-2.856 -6.378,-6.378 0,-3.522 2.856,-6.378 6.378,-6.378 3.523,0 6.378,2.856 6.378,6.378 z" /><path
       inkscape:connector-curvature="0"
       id="path124"
       style="fill:none;stroke:#090000;stroke-width:0.108;stroke-linecap:round;stroke-linejoin:round;stroke-miterlimit:10;stroke-dasharray:none;stroke-opacity:1"
       d="m 1334.8779,692 c 0,3.522 -2.855,6.378 -6.378,6.378 -3.522,0 -6.378,-2.856 -6.378,-6.378 0,-3.522 2.856,-6.378 6.378,-6.378 3.523,0 6.378,2.856 6.378,6.378 z" /><path
       inkscape:connector-curvature="0"
       id="path128"
       style="fill:none;stroke:#090000;stroke-width:0.108;stroke-linecap:round;stroke-linejoin:round;stroke-miterlimit:10;stroke-dasharray:none;stroke-opacity:1"
       d="m 407.8779,692 c 0,3.522 -2.855,6.378 -6.378,6.378 -3.522,0 -6.378,-2.856 -6.378,-6.378 0,-3.522 2.856,-6.378 6.378,-6.378 3.523,0 6.378,2.856 6.378,6.378 z" /><path
       inkscape:connector-curvature="0"
       id="path132"
       style="fill:none;stroke:#090000;stroke-width:0.108;stroke-linecap:round;stroke-linejoin:round;stroke-miterlimit:10;stroke-dasharray:none;stroke-opacity:1"
       d="m 1337.5,719 c 9.941,0 18,-8.059 18,-18 V 161 c 0,-9.941 -8.059,-18 -18,-18 h -945 c -9.941,0 -18,8.059 -18,18 v 540 c 0,9.941 8.059,18 18,18 z" /><path
       inkscape:connector-curvature="0"
       id="path180-2"
       style="display:inline;fill:none;stroke:#090000;stroke-width:0.108;stroke-linecap:round;stroke-linejoin:round;stroke-miterlimit:10;stroke-dasharray:none;stroke-opacity:1"
       d="m 976.40133,499.61559 c 0,19.021 -15.42,34.441 -34.44,34.441 -19.02203,0 -34.44203,-15.42 -34.44203,-34.441 0,-19.021 15.42,-34.44099 34.44203,-34.44099 19.02,0 34.44,15.41999 34.44,34.44099 z" /><path
       inkscape:connector-curvature="0"
       id="path204"
       style="display:inline;fill:none;stroke:#090000;stroke-width:0.108;stroke-linecap:round;stroke-linejoin:round;stroke-miterlimit:10;stroke-dasharray:none;stroke-opacity:1"
       d="m 1224.4336,522.29289 c 0,19.021 -15.42,34.441 -34.441,34.441 -19.022,0 -34.4409,-15.42 -34.4409,-34.441 0,-19.02099 15.4189,-34.441 34.4409,-34.441 19.021,0 34.441,15.42001 34.441,34.441 z" /><path
       inkscape:connector-curvature="0"
       id="path212"
       style="display:inline;fill:none;stroke:#090000;stroke-width:0.108;stroke-linecap:round;stroke-linejoin:round;stroke-miterlimit:10;stroke-dasharray:none;stroke-opacity:1"
       d="m 1054.3545,533.6313 c 0,19.02099 -15.42,34.441 -34.4412,34.441 -19.0209,0 -34.44087,-15.42001 -34.44087,-34.441 0,-19.02101 15.41997,-34.44101 34.44087,-34.44101 19.0212,0 34.4412,15.42 34.4412,34.44101 z" /><path
       inkscape:connector-curvature="0"
       id="path220"
       style="display:inline;fill:none;stroke:#090000;stroke-width:0.108;stroke-linecap:round;stroke-linejoin:round;stroke-miterlimit:10;stroke-dasharray:none;stroke-opacity:1"
       d="m 1139.3937,533.6313 c 0,19.02099 -15.42,34.441 -34.44,34.441 -19.0221,0 -34.4421,-15.42001 -34.4421,-34.441 0,-19.02101 15.42,-34.44101 34.4421,-34.44101 19.02,0 34.44,15.42 34.44,34.44101 z" /><path
       inkscape:connector-curvature="0"
       id="path180-0"
       style="display:inline;fill:none;stroke:#090000;stroke-width:0.108;stroke-linecap:round;stroke-linejoin:round;stroke-miterlimit:10;stroke-dasharray:none;stroke-opacity:1"
       d="m 976.40133,587.48908 c 0,19.02099 -15.42,34.44099 -34.44,34.44099 -19.02203,0 -34.44203,-15.42 -34.44203,-34.44099 0,-19.021 15.42,-34.441 34.44203,-34.441 19.02,0 34.44,15.42 34.44,34.441 z" /><path
       inkscape:connector-curvature="0"
       id="path204-3"
       style="display:inline;fill:none;stroke:#090000;stroke-width:0.108;stroke-linecap:round;stroke-linejoin:round;stroke-miterlimit:10;stroke-dasharray:none;stroke-opacity:1"
       d="m 1227.2688,607.33159 c 0,19.021 -15.42,34.441 -34.4409,34.441 -19.0221,0 -34.4411,-15.42 -34.4411,-34.441 0,-19.02099 15.419,-34.441 34.4411,-34.441 19.0209,0 34.4409,15.42001 34.4409,34.441 z" /><path
       inkscape:connector-curvature="0"
       id="path212-6"
       style="display:inline;fill:none;stroke:#090000;stroke-width:0.108;stroke-linecap:round;stroke-linejoin:round;stroke-miterlimit:10;stroke-dasharray:none;stroke-opacity:1"
       d="m 1054.3545,621.50477 c 0,19.02101 -15.42,34.44101 -34.4412,34.44101 -19.0209,0 -34.44087,-15.42 -34.44087,-34.44101 0,-19.021 15.41997,-34.441 34.44087,-34.441 19.0212,0 34.4412,15.42 34.4412,34.441 z" /><path
       inkscape:connector-curvature="0"
       id="path220-1"
       style="display:inline;fill:none;stroke:#090000;stroke-width:0.108;stroke-linecap:round;stroke-linejoin:round;stroke-miterlimit:10;stroke-dasharray:none;stroke-opacity:1"
       d="m 1139.3937,621.50477 c 0,19.02101 -15.42,34.44101 -34.44,34.44101 -19.0221,0 -34.4421,-15.42 -34.4421,-34.44101 0,-19.021 15.42,-34.441 34.4421,-34.441 19.02,0 34.44,15.42 34.44,34.441 z" /><path
       inkscape:connector-curvature="0"
       id="path184-9"
       style="display:inline;fill:none;stroke:#090000;stroke-width:0.108;stroke-linecap:round;stroke-linejoin:round;stroke-miterlimit:10;stroke-dasharray:none;stroke-opacity:1"
       d="m 970.7323,411.7421 c 0,19.02099 -15.42,34.44 -34.44,34.44 -19.02203,0 -34.44203,-15.41901 -34.44203,-34.44 0,-19.021 15.42,-34.441 34.44203,-34.441 19.02,0 34.44,15.42 34.44,34.441 z" /><path
       inkscape:connector-curvature="0"
       id="path184-3"
       style="display:inline;fill:none;stroke:#090000;stroke-width:0.108;stroke-linecap:round;stroke-linejoin:round;stroke-miterlimit:10;stroke-dasharray:none;stroke-opacity:1"
       d="m 894.1978,377.72528 c 0,19.021 -15.42,34.44 -34.44,34.44 -19.02203,0 -34.44203,-15.419 -34.44203,-34.44 0,-19.02099 15.42,-34.441 34.44203,-34.441 19.02,0 34.44,15.42001 34.44,34.441 z" /><path
       inkscape:connector-curvature="0"
       id="path184-3-2"
       style="display:inline;fill:none;stroke:#090000;stroke-width:0.108;stroke-linecap:round;stroke-linejoin:round;stroke-miterlimit:10;stroke-dasharray:none;stroke-opacity:1"
       d="m 932.46497,289.85127 c 0,19.021 -15.42,34.44001 -34.43992,34.44001 -19.02203,0 -34.44203,-15.41901 -34.44203,-34.44001 0,-19.02099 15.42,-34.44099 34.44203,-34.44099 19.01992,0 34.43992,15.42 34.43992,34.44099 z" /></g></svg>