<?xml version="1.0" encoding="UTF-8" standalone="no"?>
<!-- Created with Inkscape (http://www.inkscape.org/) -->

<svg
   xmlns:dc="http://purl.org/dc/elements/1.1/"
   xmlns:cc="http://creativecommons.org/ns#"
   xmlns:rdf="http://www.w3.org/1999/02/22-rdf-syntax-ns#"
   xmlns:svg="http://www.w3.org/2000/svg"
   xmlns="http://www.w3.org/2000/svg"
   xmlns:sodipodi="http://sodipodi.sourceforge.net/DTD/sodipodi-0.dtd"
   xmlns:inkscape="http://www.inkscape.org/namespaces/inkscape"
   version="1.1"
   id="svg2"
   xml:space="preserve"
   width="1308.1439"
   height="768.14398"
   viewBox="0 0 1308.1439 768.14398"
   sodipodi:docname="14in.svg"
   inkscape:version="0.92.5 (2060ec1f9f, 2020-04-08)"><metadata
     id="metadata8"><rdf:RDF><cc:Work
         rdf:about=""><dc:format>image/svg+xml</dc:format><dc:type
           rdf:resource="http://purl.org/dc/dcmitype/StillImage" /><dc:title /></cc:Work></rdf:RDF></metadata><defs
     id="defs6"><clipPath
       clipPathUnits="userSpaceOnUse"
       id="clipPath26"><path
         d="M 0,864 H 1728 V 0 H 0 Z"
         id="path24"
         inkscape:connector-curvature="0" /></clipPath><clipPath
       clipPathUnits="userSpaceOnUse"
       id="clipPath100"><path
         d="M 0,864 H 1728 V 0 H 0 Z"
         id="path98"
         inkscape:connector-curvature="0" /></clipPath></defs><sodipodi:namedview
     pagecolor="#ffffff"
     bordercolor="#666666"
     borderopacity="1"
     objecttolerance="10"
     gridtolerance="10"
     guidetolerance="10"
     inkscape:pageopacity="0"
     inkscape:pageshadow="2"
     inkscape:window-width="2560"
     inkscape:window-height="1375"
     id="namedview4"
     showgrid="false"
     inkscape:zoom="0.52792933"
     inkscape:cx="1119.1532"
     inkscape:cy="203.07313"
     inkscape:window-x="1440"
     inkscape:window-y="464"
     inkscape:window-maximized="1"
     inkscape:current-layer="g10" /><g
     id="g10"
     inkscape:groupmode="layer"
     inkscape:label="PDF ART CUT 14INCH FULL NOIR 8 24MM"
     transform="matrix(1.3333333,0,0,-1.3333333,-499.26132,958.73864)"
     style="display:inline"><g
       id="g865"><path
         d="m 701.1572,489.6943 c 0,18.865 -15.292,34.158 -34.157,34.158 -18.865,0 -34.157,-15.293 -34.157,-34.158 0,-18.865 15.292,-34.157 34.157,-34.157 18.865,0 34.157,15.292 34.157,34.157 z"
         style="fill:none;stroke:#090000;stroke-width:0.108;stroke-linecap:round;stroke-linejoin:round;stroke-miterlimit:10;stroke-dasharray:none;stroke-opacity:1"
         id="path104"
         inkscape:connector-curvature="0" /><path
         d="m 871.3779,170 c 0,3.522 -2.855,6.378 -6.378,6.378 -3.522,0 -6.378,-2.856 -6.378,-6.378 0,-3.522 2.856,-6.378 6.378,-6.378 3.523,0 6.378,2.856 6.378,6.378 z"
         style="fill:none;stroke:#090000;stroke-width:0.108;stroke-linecap:round;stroke-linejoin:round;stroke-miterlimit:10;stroke-dasharray:none;stroke-opacity:1"
         id="path108"
         inkscape:connector-curvature="0" /><path
         d="m 871.3779,692 c 0,3.522 -2.855,6.378 -6.378,6.378 -3.522,0 -6.378,-2.856 -6.378,-6.378 0,-3.522 2.856,-6.378 6.378,-6.378 3.523,0 6.378,2.856 6.378,6.378 z"
         style="fill:none;stroke:#090000;stroke-width:0.108;stroke-linecap:round;stroke-linejoin:round;stroke-miterlimit:10;stroke-dasharray:none;stroke-opacity:1"
         id="path112"
         inkscape:connector-curvature="0" /><path
         d="m 407.8779,170 c 0,3.522 -2.855,6.378 -6.378,6.378 -3.522,0 -6.378,-2.856 -6.378,-6.378 0,-3.522 2.856,-6.378 6.378,-6.378 3.523,0 6.378,2.856 6.378,6.378 z"
         style="fill:none;stroke:#090000;stroke-width:0.108;stroke-linecap:round;stroke-linejoin:round;stroke-miterlimit:10;stroke-dasharray:none;stroke-opacity:1"
         id="path116"
         inkscape:connector-curvature="0" /><path
         d="m 1334.8779,170 c 0,3.522 -2.855,6.378 -6.378,6.378 -3.522,0 -6.378,-2.856 -6.378,-6.378 0,-3.522 2.856,-6.378 6.378,-6.378 3.523,0 6.378,2.856 6.378,6.378 z"
         style="fill:none;stroke:#090000;stroke-width:0.108;stroke-linecap:round;stroke-linejoin:round;stroke-miterlimit:10;stroke-dasharray:none;stroke-opacity:1"
         id="path120"
         inkscape:connector-curvature="0" /><path
         d="m 1334.8779,692 c 0,3.522 -2.855,6.378 -6.378,6.378 -3.522,0 -6.378,-2.856 -6.378,-6.378 0,-3.522 2.856,-6.378 6.378,-6.378 3.523,0 6.378,2.856 6.378,6.378 z"
         style="fill:none;stroke:#090000;stroke-width:0.108;stroke-linecap:round;stroke-linejoin:round;stroke-miterlimit:10;stroke-dasharray:none;stroke-opacity:1"
         id="path124"
         inkscape:connector-curvature="0" /><path
         d="m 407.8779,692 c 0,3.522 -2.855,6.378 -6.378,6.378 -3.522,0 -6.378,-2.856 -6.378,-6.378 0,-3.522 2.856,-6.378 6.378,-6.378 3.523,0 6.378,2.856 6.378,6.378 z"
         style="fill:none;stroke:#090000;stroke-width:0.108;stroke-linecap:round;stroke-linejoin:round;stroke-miterlimit:10;stroke-dasharray:none;stroke-opacity:1"
         id="path128"
         inkscape:connector-curvature="0" /><path
         d="m 1337.5,719 c 9.941,0 18,-8.059 18,-18 V 161 c 0,-9.941 -8.059,-18 -18,-18 h -945 c -9.941,0 -18,8.059 -18,18 v 540 c 0,9.941 8.059,18 18,18 z"
         style="fill:none;stroke:#090000;stroke-width:0.108;stroke-linecap:round;stroke-linejoin:round;stroke-miterlimit:10;stroke-dasharray:none;stroke-opacity:1"
         id="path132"
         inkscape:connector-curvature="0" /><path
         transform="matrix(0.75000002,0,0,-0.75000002,0,864.00002)"
         d="m 1301.8684,485.84589 c 0,-25.36133 -20.56,-45.92133 -45.92,-45.92133 -25.3627,0 -45.9227,20.56 -45.9227,45.92133 0,25.36133 20.56,45.92132 45.9227,45.92132 25.36,0 45.92,-20.55999 45.92,-45.92132 z"
         style="display:inline;fill:none;stroke:#090000;stroke-width:0.14399999;stroke-linecap:round;stroke-linejoin:round;stroke-miterlimit:10;stroke-dasharray:none;stroke-opacity:1"
         id="path180-2"
         inkscape:connector-curvature="0" /><path
         transform="matrix(0.75000002,0,0,-0.75000002,0,864.00002)"
         d="m 1628.7981,576.55415 c 0,-25.36133 -20.56,-45.92134 -45.9213,-45.92134 -25.3613,0 -45.9213,20.56001 -45.9213,45.92134 0,25.36267 20.56,45.92134 45.9213,45.92134 25.3613,0 45.9213,-20.55867 45.9213,-45.92134 z"
         style="display:inline;fill:none;stroke:#090000;stroke-width:0.14399999;stroke-linecap:round;stroke-linejoin:round;stroke-miterlimit:10;stroke-dasharray:none;stroke-opacity:1"
         id="path200"
         inkscape:connector-curvature="0" /><path
         transform="matrix(0.75000002,0,0,-0.75000002,0,864.00002)"
         d="m 1632.5781,455.60949 c 0,-25.36133 -20.56,-45.92133 -45.9213,-45.92133 -25.3627,0 -45.9213,20.56 -45.9213,45.92133 0,25.36133 20.5586,45.92133 45.9213,45.92133 25.3613,0 45.9213,-20.56 45.9213,-45.92133 z"
         style="display:inline;fill:none;stroke:#090000;stroke-width:0.14399999;stroke-linecap:round;stroke-linejoin:round;stroke-miterlimit:10;stroke-dasharray:none;stroke-opacity:1"
         id="path204"
         inkscape:connector-curvature="0" /><path
         transform="matrix(0.75000002,0,0,-0.75000002,0,864.00002)"
         d="m 1519.1915,557.65709 c 0,-25.36134 -20.56,-45.92134 -45.92,-45.92134 -25.3627,0 -45.9228,20.56 -45.9228,45.92134 0,25.36133 20.5601,45.92133 45.9228,45.92133 25.36,0 45.92,-20.56 45.92,-45.92133 z"
         style="display:inline;fill:none;stroke:#090000;stroke-width:0.14399999;stroke-linecap:round;stroke-linejoin:round;stroke-miterlimit:10;stroke-dasharray:none;stroke-opacity:1"
         id="path208"
         inkscape:connector-curvature="0" /><path
         transform="matrix(0.75000002,0,0,-0.75000002,0,864.00002)"
         d="m 1405.8059,440.49162 c 0,-25.36133 -20.56,-45.92134 -45.9215,-45.92134 -25.3613,0 -45.9212,20.56001 -45.9212,45.92134 0,25.36134 20.5599,45.92134 45.9212,45.92134 25.3615,0 45.9215,-20.56 45.9215,-45.92134 z"
         style="display:inline;fill:none;stroke:#090000;stroke-width:0.14399999;stroke-linecap:round;stroke-linejoin:round;stroke-miterlimit:10;stroke-dasharray:none;stroke-opacity:1"
         id="path212"
         inkscape:connector-curvature="0" /><path
         transform="matrix(0.75000002,0,0,-0.75000002,0,864.00002)"
         d="m 1398.2472,557.65709 c 0,-25.36134 -20.56,-45.92134 -45.9214,-45.92134 -25.3626,0 -45.9213,20.56 -45.9213,45.92134 0,25.36133 20.5587,45.92133 45.9213,45.92133 25.3614,0 45.9214,-20.56 45.9214,-45.92133 z"
         style="display:inline;fill:none;stroke:#090000;stroke-width:0.14399999;stroke-linecap:round;stroke-linejoin:round;stroke-miterlimit:10;stroke-dasharray:none;stroke-opacity:1"
         id="path216"
         inkscape:connector-curvature="0" /><path
         transform="matrix(0.75000002,0,0,-0.75000002,0,864.00002)"
         d="m 1519.1915,440.49162 c 0,-25.36133 -20.56,-45.92134 -45.92,-45.92134 -25.3627,0 -45.9228,20.56001 -45.9228,45.92134 0,25.36134 20.5601,45.92134 45.9228,45.92134 25.36,0 45.92,-20.56 45.92,-45.92134 z"
         style="display:inline;fill:none;stroke:#090000;stroke-width:0.14399999;stroke-linecap:round;stroke-linejoin:round;stroke-miterlimit:10;stroke-dasharray:none;stroke-opacity:1"
         id="path220"
         inkscape:connector-curvature="0" /><path
         transform="matrix(0.75000002,0,0,-0.75000002,0,864.00002)"
         d="m 1301.8684,368.68125 c 0,-25.36133 -20.56,-45.92133 -45.92,-45.92133 -25.3627,0 -45.9227,20.56 -45.9227,45.92133 0,25.36133 20.56,45.92133 45.9227,45.92133 25.36,0 45.92,-20.56 45.92,-45.92133 z"
         style="display:inline;fill:none;stroke:#090000;stroke-width:0.14399999;stroke-linecap:round;stroke-linejoin:round;stroke-miterlimit:10;stroke-dasharray:none;stroke-opacity:1"
         id="path180-0"
         inkscape:connector-curvature="0" /><path
         transform="matrix(0.75000002,0,0,-0.75000002,0,864.00002)"
         d="m 1636.3584,342.22456 c 0,-25.36133 -20.56,-45.92133 -45.9213,-45.92133 -25.3627,0 -45.9214,20.56 -45.9214,45.92133 0,25.36133 20.5587,45.92133 45.9214,45.92133 25.3613,0 45.9213,-20.56 45.9213,-45.92133 z"
         style="display:inline;fill:none;stroke:#090000;stroke-width:0.14399999;stroke-linecap:round;stroke-linejoin:round;stroke-miterlimit:10;stroke-dasharray:none;stroke-opacity:1"
         id="path204-3"
         inkscape:connector-curvature="0" /><path
         transform="matrix(0.75000002,0,0,-0.75000002,0,864.00002)"
         d="m 1405.8059,323.32699 c 0,-25.36134 -20.56,-45.92134 -45.9215,-45.92134 -25.3613,0 -45.9212,20.56 -45.9212,45.92134 0,25.36133 20.5599,45.92133 45.9212,45.92133 25.3615,0 45.9215,-20.56 45.9215,-45.92133 z"
         style="display:inline;fill:none;stroke:#090000;stroke-width:0.14399999;stroke-linecap:round;stroke-linejoin:round;stroke-miterlimit:10;stroke-dasharray:none;stroke-opacity:1"
         id="path212-6"
         inkscape:connector-curvature="0" /><path
         transform="matrix(0.75000002,0,0,-0.75000002,0,864.00002)"
         d="m 1519.1915,323.32699 c 0,-25.36134 -20.56,-45.92134 -45.92,-45.92134 -25.3627,0 -45.9228,20.56 -45.9228,45.92134 0,25.36133 20.5601,45.92133 45.9228,45.92133 25.36,0 45.92,-20.56 45.92,-45.92133 z"
         style="display:inline;fill:none;stroke:#090000;stroke-width:0.14399999;stroke-linecap:round;stroke-linejoin:round;stroke-miterlimit:10;stroke-dasharray:none;stroke-opacity:1"
         id="path220-1"
         inkscape:connector-curvature="0" /><path
         transform="matrix(0.75000002,0,0,-0.75000002,0,864.00002)"
         d="m 1294.3097,603.01055 c 0,-25.36133 -20.56,-45.92 -45.92,-45.92 -25.3627,0 -45.9227,20.55867 -45.9227,45.92 0,25.36133 20.56,45.92133 45.9227,45.92133 25.36,0 45.92,-20.56 45.92,-45.92133 z"
         style="display:inline;fill:none;stroke:#090000;stroke-width:0.14399999;stroke-linecap:round;stroke-linejoin:round;stroke-miterlimit:10;stroke-dasharray:none;stroke-opacity:1"
         id="path184-9"
         inkscape:connector-curvature="0" /><path
         transform="matrix(0.75000002,0,0,-0.75000002,0,864.00002)"
         d="m 1192.2637,648.3663 c 0,-25.36133 -20.56,-45.92 -45.92,-45.92 -25.3627,0 -45.9227,20.55867 -45.9227,45.92 0,25.36132 20.56,45.92133 45.9227,45.92133 25.36,0 45.92,-20.56001 45.92,-45.92133 z"
         style="display:inline;fill:none;stroke:#090000;stroke-width:0.14399999;stroke-linecap:round;stroke-linejoin:round;stroke-miterlimit:10;stroke-dasharray:none;stroke-opacity:1"
         id="path184-3"
         inkscape:connector-curvature="0" /><path
         transform="matrix(0.75000002,0,0,-0.75000002,0,864.00002)"
         d="m 1243.2866,765.53164 c 0,-25.36133 -20.56,-45.92 -45.9199,-45.92 -25.3627,0 -45.9227,20.55867 -45.9227,45.92 0,25.36133 20.56,45.92133 45.9227,45.92133 25.3599,0 45.9199,-20.56 45.9199,-45.92133 z"
         style="display:inline;fill:none;stroke:#090000;stroke-width:0.14399999;stroke-linecap:round;stroke-linejoin:round;stroke-miterlimit:10;stroke-dasharray:none;stroke-opacity:1"
         id="path184-3-2"
         inkscape:connector-curvature="0" /></g></g></svg>