<?xml version="1.0" encoding="UTF-8" standalone="no"?>
<!-- Created with Inkscape (http://www.inkscape.org/) -->

<svg
   xmlns:dc="http://purl.org/dc/elements/1.1/"
   xmlns:cc="http://creativecommons.org/ns#"
   xmlns:rdf="http://www.w3.org/1999/02/22-rdf-syntax-ns#"
   xmlns:svg="http://www.w3.org/2000/svg"
   xmlns="http://www.w3.org/2000/svg"
   xmlns:sodipodi="http://sodipodi.sourceforge.net/DTD/sodipodi-0.dtd"
   xmlns:inkscape="http://www.inkscape.org/namespaces/inkscape"
   version="1.1"
   id="svg2"
   xml:space="preserve"
   width="393.74634mm"
   height="203.2381mm"
   viewBox="0 0 1488.1752 768.14402"
   sodipodi:docname="16in.svg"
   inkscape:version="0.92.5 (2060ec1f9f, 2020-04-08)"><metadata
     id="metadata8"><rdf:RDF><cc:Work
         rdf:about=""><dc:format>image/svg+xml</dc:format><dc:type
           rdf:resource="http://purl.org/dc/dcmitype/StillImage" /><dc:title /></cc:Work></rdf:RDF></metadata><defs
     id="defs6"><clipPath
       clipPathUnits="userSpaceOnUse"
       id="clipPath26"><path
         d="M 0,864 H 1728 V 0 H 0 Z"
         id="path24"
         inkscape:connector-curvature="0" /></clipPath><clipPath
       clipPathUnits="userSpaceOnUse"
       id="clipPath100"><path
         d="M 0,864 H 1728 V 0 H 0 Z"
         id="path98"
         inkscape:connector-curvature="0" /></clipPath></defs><sodipodi:namedview
     pagecolor="#ffffff"
     bordercolor="#666666"
     borderopacity="1"
     objecttolerance="10"
     gridtolerance="10"
     guidetolerance="10"
     inkscape:pageopacity="0"
     inkscape:pageshadow="2"
     inkscape:window-width="2560"
     inkscape:window-height="1375"
     id="namedview4"
     showgrid="false"
     inkscape:zoom="0.69413874"
     inkscape:cx="1207.1551"
     inkscape:cy="99.82988"
     inkscape:window-x="1440"
     inkscape:window-y="464"
     inkscape:window-maximized="1"
     inkscape:current-layer="g10"
     units="mm"
     inkscape:document-units="mm" /><g
     id="g10"
     inkscape:groupmode="layer"
     inkscape:label="PDF ART CUT 16INCH STICKLESS"
     transform="matrix(1.3333333,0,0,-1.3333333,-409.26132,958.73864)"
     style="display:inline"><g
       id="g870"><path
         d="m 1423,148.001 h -10e-4 l 10e-4,-0.002 10e-4,0.001 z"
         style="fill:none;stroke:#000000;stroke-width:0.108;stroke-linecap:butt;stroke-linejoin:miter;stroke-miterlimit:22.9260006;stroke-dasharray:none;stroke-opacity:1"
         id="path58"
         inkscape:connector-curvature="0" /><path
         d="m 1423,718.0015 -10e-4,-10e-4 10e-4,-0.002 10e-4,0.002 z"
         style="fill:none;stroke:#000000;stroke-width:0.108;stroke-linecap:butt;stroke-linejoin:miter;stroke-miterlimit:22.9260006;stroke-dasharray:none;stroke-opacity:1"
         id="path62"
         inkscape:connector-curvature="0" /><path
         d="m 1423,148.001 h -10e-4 l 10e-4,-0.002 10e-4,0.001 z"
         style="fill:none;stroke:#000000;stroke-width:0.108;stroke-linecap:butt;stroke-linejoin:miter;stroke-miterlimit:22.9260006;stroke-dasharray:none;stroke-opacity:1"
         id="path66"
         inkscape:connector-curvature="0" /><path
         d="m 1423,718.0015 -10e-4,-10e-4 10e-4,-0.002 10e-4,0.002 z"
         style="fill:none;stroke:#000000;stroke-width:0.108;stroke-linecap:butt;stroke-linejoin:miter;stroke-miterlimit:22.9260006;stroke-dasharray:none;stroke-opacity:1"
         id="path74"
         inkscape:connector-curvature="0" /><g
         id="g1430"><path
           inkscape:connector-curvature="0"
           id="path152"
           style="fill:none;stroke:#000000;stroke-width:0.108;stroke-linecap:round;stroke-linejoin:round;stroke-miterlimit:10;stroke-dasharray:none;stroke-opacity:1"
           d="m 871.3779,170 c 0,3.522 -2.855,6.378 -6.378,6.378 -3.522,0 -6.378,-2.856 -6.378,-6.378 0,-3.522 2.856,-6.378 6.378,-6.378 3.523,0 6.378,2.856 6.378,6.378 z" /><path
           inkscape:connector-curvature="0"
           id="path156"
           style="fill:none;stroke:#000000;stroke-width:0.108;stroke-linecap:round;stroke-linejoin:round;stroke-miterlimit:10;stroke-dasharray:none;stroke-opacity:1"
           d="m 871.3779,692 c 0,3.522 -2.855,6.378 -6.378,6.378 -3.522,0 -6.378,-2.856 -6.378,-6.378 0,-3.522 2.856,-6.378 6.378,-6.378 3.523,0 6.378,2.856 6.378,6.378 z" /><path
           inkscape:connector-curvature="0"
           id="path160"
           style="fill:none;stroke:#000000;stroke-width:0.108;stroke-linecap:round;stroke-linejoin:round;stroke-miterlimit:10;stroke-dasharray:none;stroke-opacity:1"
           d="m 340.3779,170 c 0,3.522 -2.855,6.378 -6.378,6.378 -3.522,0 -6.378,-2.856 -6.378,-6.378 0,-3.522 2.856,-6.378 6.378,-6.378 3.523,0 6.378,2.856 6.378,6.378 z" /><path
           inkscape:connector-curvature="0"
           id="path164"
           style="fill:none;stroke:#000000;stroke-width:0.108;stroke-linecap:round;stroke-linejoin:round;stroke-miterlimit:10;stroke-dasharray:none;stroke-opacity:1"
           d="m 1402.3779,170 c 0,3.522 -2.855,6.378 -6.378,6.378 -3.522,0 -6.378,-2.856 -6.378,-6.378 0,-3.522 2.856,-6.378 6.378,-6.378 3.523,0 6.378,2.856 6.378,6.378 z" /><path
           inkscape:connector-curvature="0"
           id="path168"
           style="fill:none;stroke:#000000;stroke-width:0.108;stroke-linecap:round;stroke-linejoin:round;stroke-miterlimit:10;stroke-dasharray:none;stroke-opacity:1"
           d="m 1402.3779,692 c 0,3.522 -2.855,6.378 -6.378,6.378 -3.522,0 -6.378,-2.856 -6.378,-6.378 0,-3.522 2.856,-6.378 6.378,-6.378 3.523,0 6.378,2.856 6.378,6.378 z" /><path
           inkscape:connector-curvature="0"
           id="path172"
           style="fill:none;stroke:#000000;stroke-width:0.108;stroke-linecap:round;stroke-linejoin:round;stroke-miterlimit:10;stroke-dasharray:none;stroke-opacity:1"
           d="m 340.3779,692 c 0,3.522 -2.855,6.378 -6.378,6.378 -3.522,0 -6.378,-2.856 -6.378,-6.378 0,-3.522 2.856,-6.378 6.378,-6.378 3.523,0 6.378,2.856 6.378,6.378 z" /><path
           inkscape:connector-curvature="0"
           id="path176"
           style="fill:none;stroke:#000000;stroke-width:0.108;stroke-linecap:round;stroke-linejoin:round;stroke-miterlimit:10;stroke-dasharray:none;stroke-opacity:1"
           d="m 325,719 c -9.941,0 -18,-8.059 -18,-18 V 161 c 0,-9.941 8.059,-18 18,-18 h 1080 c 9.941,0 18,8.059 18,18 v 540 c 0,9.941 -8.059,18 -18,18 z" /></g><path
         d="m 616.1182,489.6943 c 0,18.865 -15.293,34.158 -34.158,34.158 -18.864,0 -34.157,-15.293 -34.157,-34.158 0,-18.865 15.293,-34.157 34.157,-34.157 18.865,0 34.158,15.292 34.158,34.157 z"
         style="fill:none;stroke:#000000;stroke-width:0.108;stroke-linecap:round;stroke-linejoin:round;stroke-miterlimit:10;stroke-dasharray:none;stroke-opacity:1"
         id="path140-7"
         inkscape:connector-curvature="0" /><path
         d="m 976.40126,499.61558 c 0,19.021 -15.42,34.441 -34.44,34.441 -19.022,0 -34.442,-15.42 -34.442,-34.441 0,-19.021 15.42,-34.441 34.442,-34.441 19.02,0 34.44,15.42 34.44,34.441 z"
         style="fill:none;stroke:#000000;stroke-width:0.108;stroke-linecap:round;stroke-linejoin:round;stroke-miterlimit:10;stroke-dasharray:none;stroke-opacity:1"
         id="path180"
         inkscape:connector-curvature="0" /><path
         d="m 1221.5986,431.58438 c 0,19.021 -15.42,34.441 -34.441,34.441 -19.021,0 -34.441,-15.42 -34.441,-34.441 0,-19.022 15.42,-34.441 34.441,-34.441 19.021,0 34.441,15.419 34.441,34.441 z"
         style="fill:none;stroke:#000000;stroke-width:0.108;stroke-linecap:round;stroke-linejoin:round;stroke-miterlimit:10;stroke-dasharray:none;stroke-opacity:1"
         id="path200"
         inkscape:connector-curvature="0" /><path
         d="m 1224.4336,522.29288 c 0,19.021 -15.42,34.441 -34.441,34.441 -19.022,0 -34.441,-15.42 -34.441,-34.441 0,-19.021 15.419,-34.441 34.441,-34.441 19.021,0 34.441,15.42 34.441,34.441 z"
         style="fill:none;stroke:#000000;stroke-width:0.108;stroke-linecap:round;stroke-linejoin:round;stroke-miterlimit:10;stroke-dasharray:none;stroke-opacity:1"
         id="path204"
         inkscape:connector-curvature="0" /><path
         d="m 1139.3936,445.75718 c 0,19.021 -15.42,34.441 -34.44,34.441 -19.022,0 -34.4421,-15.42 -34.4421,-34.441 0,-19.021 15.4201,-34.441 34.4421,-34.441 19.02,0 34.44,15.42 34.44,34.441 z"
         style="fill:none;stroke:#000000;stroke-width:0.108;stroke-linecap:round;stroke-linejoin:round;stroke-miterlimit:10;stroke-dasharray:none;stroke-opacity:1"
         id="path208"
         inkscape:connector-curvature="0" /><path
         d="m 1054.3544,533.63128 c 0,19.021 -15.42,34.441 -34.4411,34.441 -19.021,0 -34.44094,-15.42 -34.44094,-34.441 0,-19.021 15.41994,-34.441 34.44094,-34.441 19.0211,0 34.4411,15.42 34.4411,34.441 z"
         style="fill:none;stroke:#000000;stroke-width:0.108;stroke-linecap:round;stroke-linejoin:round;stroke-miterlimit:10;stroke-dasharray:none;stroke-opacity:1"
         id="path212"
         inkscape:connector-curvature="0" /><path
         d="m 1048.6854,445.75718 c 0,19.021 -15.42,34.441 -34.4411,34.441 -19.02194,0 -34.44094,-15.42 -34.44094,-34.441 0,-19.021 15.419,-34.441 34.44094,-34.441 19.0211,0 34.4411,15.42 34.4411,34.441 z"
         style="fill:none;stroke:#000000;stroke-width:0.108;stroke-linecap:round;stroke-linejoin:round;stroke-miterlimit:10;stroke-dasharray:none;stroke-opacity:1"
         id="path216"
         inkscape:connector-curvature="0" /><path
         d="m 1139.3936,533.63128 c 0,19.021 -15.42,34.441 -34.44,34.441 -19.022,0 -34.4421,-15.42 -34.4421,-34.441 0,-19.021 15.4201,-34.441 34.4421,-34.441 19.02,0 34.44,15.42 34.44,34.441 z"
         style="fill:none;stroke:#000000;stroke-width:0.108;stroke-linecap:round;stroke-linejoin:round;stroke-miterlimit:10;stroke-dasharray:none;stroke-opacity:1"
         id="path220"
         inkscape:connector-curvature="0" /><path
         d="m 976.40126,587.48906 c 0,19.021 -15.42,34.441 -34.44,34.441 -19.022,0 -34.442,-15.42 -34.442,-34.441 0,-19.021 15.42,-34.441 34.442,-34.441 19.02,0 34.44,15.42 34.44,34.441 z"
         style="fill:none;stroke:#000000;stroke-width:0.108;stroke-linecap:round;stroke-linejoin:round;stroke-miterlimit:10;stroke-dasharray:none;stroke-opacity:1"
         id="path180-0"
         inkscape:connector-curvature="0" /><path
         d="m 1227.2688,607.33158 c 0,19.021 -15.42,34.441 -34.441,34.441 -19.022,0 -34.441,-15.42 -34.441,-34.441 0,-19.021 15.419,-34.441 34.441,-34.441 19.021,0 34.441,15.42 34.441,34.441 z"
         style="fill:none;stroke:#000000;stroke-width:0.108;stroke-linecap:round;stroke-linejoin:round;stroke-miterlimit:10;stroke-dasharray:none;stroke-opacity:1"
         id="path204-3"
         inkscape:connector-curvature="0" /><path
         d="m 1054.3544,621.50476 c 0,19.021 -15.42,34.441 -34.4411,34.441 -19.021,0 -34.44094,-15.42 -34.44094,-34.441 0,-19.021 15.41994,-34.441 34.44094,-34.441 19.0211,0 34.4411,15.42 34.4411,34.441 z"
         style="fill:none;stroke:#000000;stroke-width:0.108;stroke-linecap:round;stroke-linejoin:round;stroke-miterlimit:10;stroke-dasharray:none;stroke-opacity:1"
         id="path212-6"
         inkscape:connector-curvature="0" /><path
         d="m 1139.3936,621.50476 c 0,19.021 -15.42,34.441 -34.44,34.441 -19.022,0 -34.4421,-15.42 -34.4421,-34.441 0,-19.021 15.4201,-34.441 34.4421,-34.441 19.02,0 34.44,15.42 34.44,34.441 z"
         style="fill:none;stroke:#000000;stroke-width:0.108;stroke-linecap:round;stroke-linejoin:round;stroke-miterlimit:10;stroke-dasharray:none;stroke-opacity:1"
         id="path220-1"
         inkscape:connector-curvature="0" /><path
         d="m 970.73226,411.74208 c 0,19.021 -15.42,34.44 -34.44,34.44 -19.022,0 -34.44199,-15.419 -34.44199,-34.44 0,-19.021 15.41999,-34.441 34.44199,-34.441 19.02,0 34.44,15.42 34.44,34.441 z"
         style="fill:none;stroke:#000000;stroke-width:0.108;stroke-linecap:round;stroke-linejoin:round;stroke-miterlimit:10;stroke-dasharray:none;stroke-opacity:1"
         id="path184"
         inkscape:connector-curvature="0" /><path
         d="m 894.19775,377.72527 c 0,19.021 -15.42,34.44 -34.44,34.44 -19.022,0 -34.442,-15.419 -34.442,-34.44 0,-19.021 15.42,-34.441 34.442,-34.441 19.02,0 34.44,15.42 34.44,34.441 z"
         style="fill:none;stroke:#000000;stroke-width:0.108;stroke-linecap:round;stroke-linejoin:round;stroke-miterlimit:10;stroke-dasharray:none;stroke-opacity:1"
         id="path184-3"
         inkscape:connector-curvature="0" /><path
         d="m 932.46496,289.85126 c 0,19.021 -15.42,34.44 -34.43995,34.44 -19.022,0 -34.442,-15.419 -34.442,-34.44 0,-19.021 15.42,-34.441 34.442,-34.441 19.01995,0 34.43995,15.42 34.43995,34.441 z"
         style="fill:none;stroke:#000000;stroke-width:0.108;stroke-linecap:round;stroke-linejoin:round;stroke-miterlimit:10;stroke-dasharray:none;stroke-opacity:1"
         id="path184-3-2"
         inkscape:connector-curvature="0" /></g></g></svg>