<?xml version="1.0" encoding="UTF-8" standalone="no"?>
<!-- Created with Inkscape (http://www.inkscape.org/) -->

<svg
   xmlns:dc="http://purl.org/dc/elements/1.1/"
   xmlns:cc="http://creativecommons.org/ns#"
   xmlns:rdf="http://www.w3.org/1999/02/22-rdf-syntax-ns#"
   xmlns:svg="http://www.w3.org/2000/svg"
   xmlns="http://www.w3.org/2000/svg"
   xmlns:sodipodi="http://sodipodi.sourceforge.net/DTD/sodipodi-0.dtd"
   xmlns:inkscape="http://www.inkscape.org/namespaces/inkscape"
   version="1.1"
   id="svg2"
   xml:space="preserve"
   width="444.53809mm"
   height="203.2381mm"
   viewBox="0 0 1680.1439 768.14398"
   sodipodi:docname="18in.svg"
   inkscape:version="0.92.5 (2060ec1f9f, 2020-04-08)"><defs
     id="defs29" /><metadata
     id="metadata8"><rdf:RDF><cc:Work
         rdf:about=""><dc:format>image/svg+xml</dc:format><dc:type
           rdf:resource="http://purl.org/dc/dcmitype/StillImage" /><dc:title></dc:title></cc:Work></rdf:RDF></metadata><sodipodi:namedview
     pagecolor="#ffffff"
     bordercolor="#666666"
     borderopacity="1"
     objecttolerance="10"
     gridtolerance="10"
     guidetolerance="10"
     inkscape:pageopacity="0"
     inkscape:pageshadow="2"
     inkscape:window-width="2560"
     inkscape:window-height="1375"
     id="namedview4"
     showgrid="false"
     inkscape:zoom="0.99786103"
     inkscape:cx="759.47193"
     inkscape:cy="412.93893"
     inkscape:window-x="1440"
     inkscape:window-y="464"
     inkscape:window-maximized="1"
     inkscape:current-layer="g1050"
     units="mm"
     inkscape:document-units="mm" /><g
     id="g10"
     inkscape:label="PDF ART CUT 18INCH SEGA 2P 8"
     transform="matrix(1.3333333,0,0,-1.3333333,-311.92799,960.07198)"
     style="display:inline"
     inkscape:groupmode="layer"><g
       id="g1050"
       inkscape:groupmode="layer"
       style="display:inline"><path
         d="m 615.1182,490.6943 c 0,18.865 -15.293,34.158 -34.158,34.158 -18.864,0 -34.157,-15.293 -34.157,-34.158 0,-18.865 15.293,-34.157 34.157,-34.157 18.865,0 34.158,15.292 34.158,34.157 z"
         style="fill:none;stroke:#000000;stroke-width:0.108;stroke-linecap:round;stroke-linejoin:round;stroke-miterlimit:10;stroke-dasharray:none;stroke-opacity:1"
         id="path140-7"
         inkscape:connector-curvature="0" /><path
         d="m 870.37787,171 c 0,3.522 -2.855,6.378 -6.378,6.378 -3.522,0 -6.378,-2.856 -6.378,-6.378 0,-3.522 2.856,-6.378 6.378,-6.378 3.523,0 6.378,2.856 6.378,6.378 z"
         style="fill:none;stroke:#000000;stroke-width:0.108;stroke-linecap:round;stroke-linejoin:round;stroke-miterlimit:10;stroke-dasharray:none;stroke-opacity:1"
         id="path116"
         inkscape:connector-curvature="0" /><path
         d="m 870.37787,693 c 0,3.522 -2.855,6.378 -6.378,6.378 -3.522,0 -6.378,-2.856 -6.378,-6.378 0,-3.522 2.856,-6.378 6.378,-6.378 3.523,0 6.378,2.856 6.378,6.378 z"
         style="fill:none;stroke:#000000;stroke-width:0.108;stroke-linecap:round;stroke-linejoin:round;stroke-miterlimit:10;stroke-dasharray:none;stroke-opacity:1"
         id="path120"
         inkscape:connector-curvature="0" /><path
         d="m 267.3779,171 c 0,3.522 -2.855,6.378 -6.378,6.378 -3.522,0 -6.378,-2.856 -6.378,-6.378 0,-3.522 2.856,-6.378 6.378,-6.378 3.523,0 6.378,2.856 6.378,6.378 z"
         style="fill:none;stroke:#000000;stroke-width:0.108;stroke-linecap:round;stroke-linejoin:round;stroke-miterlimit:10;stroke-dasharray:none;stroke-opacity:1"
         id="path124"
         inkscape:connector-curvature="0" /><path
         d="m 1473.3779,171 c 0,3.522 -2.855,6.378 -6.378,6.378 -3.522,0 -6.378,-2.856 -6.378,-6.378 0,-3.522 2.856,-6.378 6.378,-6.378 3.523,0 6.378,2.856 6.378,6.378 z"
         style="fill:none;stroke:#000000;stroke-width:0.108;stroke-linecap:round;stroke-linejoin:round;stroke-miterlimit:10;stroke-dasharray:none;stroke-opacity:1"
         id="path128"
         inkscape:connector-curvature="0" /><path
         d="m 1473.3779,693 c 0,3.522 -2.855,6.378 -6.378,6.378 -3.522,0 -6.378,-2.856 -6.378,-6.378 0,-3.522 2.856,-6.378 6.378,-6.378 3.523,0 6.378,2.856 6.378,6.378 z"
         style="fill:none;stroke:#000000;stroke-width:0.108;stroke-linecap:round;stroke-linejoin:round;stroke-miterlimit:10;stroke-dasharray:none;stroke-opacity:1"
         id="path132"
         inkscape:connector-curvature="0" /><path
         d="m 267.3779,693 c 0,3.522 -2.855,6.378 -6.378,6.378 -3.522,0 -6.378,-2.856 -6.378,-6.378 0,-3.522 2.856,-6.378 6.378,-6.378 3.523,0 6.378,2.856 6.378,6.378 z"
         style="fill:none;stroke:#000000;stroke-width:0.108;stroke-linecap:round;stroke-linejoin:round;stroke-miterlimit:10;stroke-dasharray:none;stroke-opacity:1"
         id="path136"
         inkscape:connector-curvature="0" /><path
         d="m 1476,720 c 9.941,0 18,-8.059 18,-18 V 162 c 0,-9.941 -8.059,-18 -18,-18 H 252 c -9.941,0 -18,8.059 -18,18 v 540 c 0,9.941 8.059,18 18,18 z"
         style="fill:none;stroke:#000000;stroke-width:0.108;stroke-linecap:round;stroke-linejoin:round;stroke-miterlimit:10;stroke-dasharray:none;stroke-opacity:1"
         id="path172"
         inkscape:connector-curvature="0" /><path
         d="m 975.40128,500.6156 c 0,19.021 -15.42,34.441 -34.44,34.441 -19.02203,0 -34.44203,-15.42 -34.44203,-34.441 0,-19.021 15.42,-34.44099 34.44203,-34.44099 19.02,0 34.44,15.41999 34.44,34.44099 z"
         style="fill:none;stroke:#000000;stroke-width:0.108;stroke-linecap:round;stroke-linejoin:round;stroke-miterlimit:10;stroke-dasharray:none;stroke-opacity:1"
         id="path180-2"
         inkscape:connector-curvature="0" /><path
         d="m 1220.5986,432.5844 c 0,19.021 -15.42,34.44101 -34.4409,34.44101 -19.021,0 -34.441,-15.42001 -34.441,-34.44101 0,-19.022 15.42,-34.441 34.441,-34.441 19.0209,0 34.4409,15.419 34.4409,34.441 z"
         style="fill:none;stroke:#000000;stroke-width:0.108;stroke-linecap:round;stroke-linejoin:round;stroke-miterlimit:10;stroke-dasharray:none;stroke-opacity:1"
         id="path200-0"
         inkscape:connector-curvature="0" /><path
         d="m 1223.4336,523.2929 c 0,19.021 -15.42,34.441 -34.4409,34.441 -19.0221,0 -34.441,-15.42 -34.441,-34.441 0,-19.021 15.4189,-34.441 34.441,-34.441 19.0209,0 34.4409,15.42 34.4409,34.441 z"
         style="fill:none;stroke:#000000;stroke-width:0.108;stroke-linecap:round;stroke-linejoin:round;stroke-miterlimit:10;stroke-dasharray:none;stroke-opacity:1"
         id="path204-9"
         inkscape:connector-curvature="0" /><path
         d="m 1138.3937,446.7572 c 0,19.021 -15.4201,34.44099 -34.4401,34.44099 -19.022,0 -34.4421,-15.41999 -34.4421,-34.44099 0,-19.021 15.4201,-34.441 34.4421,-34.441 19.02,0 34.4401,15.42 34.4401,34.441 z"
         style="fill:none;stroke:#000000;stroke-width:0.108;stroke-linecap:round;stroke-linejoin:round;stroke-miterlimit:10;stroke-dasharray:none;stroke-opacity:1"
         id="path208-3"
         inkscape:connector-curvature="0" /><path
         d="m 1053.3544,534.6313 c 0,19.021 -15.42,34.44101 -34.4411,34.44101 -19.021,0 -34.44092,-15.42001 -34.44092,-34.44101 0,-19.021 15.41992,-34.441 34.44092,-34.441 19.0211,0 34.4411,15.42 34.4411,34.441 z"
         style="fill:none;stroke:#000000;stroke-width:0.108;stroke-linecap:round;stroke-linejoin:round;stroke-miterlimit:10;stroke-dasharray:none;stroke-opacity:1"
         id="path212-60"
         inkscape:connector-curvature="0" /><path
         d="m 1047.6854,446.7572 c 0,19.021 -15.42,34.44099 -34.4411,34.44099 -19.02192,0 -34.44095,-15.41999 -34.44095,-34.44099 0,-19.021 15.41903,-34.441 34.44095,-34.441 19.0211,0 34.4411,15.42 34.4411,34.441 z"
         style="fill:none;stroke:#000000;stroke-width:0.108;stroke-linecap:round;stroke-linejoin:round;stroke-miterlimit:10;stroke-dasharray:none;stroke-opacity:1"
         id="path216-6"
         inkscape:connector-curvature="0" /><path
         d="m 1138.3937,534.6313 c 0,19.021 -15.4201,34.44101 -34.4401,34.44101 -19.022,0 -34.4421,-15.42001 -34.4421,-34.44101 0,-19.021 15.4201,-34.441 34.4421,-34.441 19.02,0 34.4401,15.42 34.4401,34.441 z"
         style="fill:none;stroke:#000000;stroke-width:0.108;stroke-linecap:round;stroke-linejoin:round;stroke-miterlimit:10;stroke-dasharray:none;stroke-opacity:1"
         id="path220-2"
         inkscape:connector-curvature="0" /><path
         d="m 975.40128,588.48908 c 0,19.021 -15.42,34.441 -34.44,34.441 -19.02203,0 -34.44203,-15.42 -34.44203,-34.441 0,-19.021 15.42,-34.441 34.44203,-34.441 19.02,0 34.44,15.42 34.44,34.441 z"
         style="fill:none;stroke:#000000;stroke-width:0.108;stroke-linecap:round;stroke-linejoin:round;stroke-miterlimit:10;stroke-dasharray:none;stroke-opacity:1"
         id="path180-0-6"
         inkscape:connector-curvature="0" /><path
         d="m 1226.2689,608.3316 c 0,19.021 -15.42,34.441 -34.441,34.441 -19.022,0 -34.4411,-15.42 -34.4411,-34.441 0,-19.021 15.4191,-34.441 34.4411,-34.441 19.021,0 34.441,15.42 34.441,34.441 z"
         style="fill:none;stroke:#000000;stroke-width:0.108;stroke-linecap:round;stroke-linejoin:round;stroke-miterlimit:10;stroke-dasharray:none;stroke-opacity:1"
         id="path204-3-1"
         inkscape:connector-curvature="0" /><path
         d="m 1053.3544,622.50478 c 0,19.021 -15.42,34.441 -34.4411,34.441 -19.021,0 -34.44092,-15.42 -34.44092,-34.441 0,-19.021 15.41992,-34.441 34.44092,-34.441 19.0211,0 34.4411,15.42 34.4411,34.441 z"
         style="fill:none;stroke:#000000;stroke-width:0.108;stroke-linecap:round;stroke-linejoin:round;stroke-miterlimit:10;stroke-dasharray:none;stroke-opacity:1"
         id="path212-6-8"
         inkscape:connector-curvature="0" /><path
         d="m 1138.3937,622.50478 c 0,19.021 -15.4201,34.441 -34.4401,34.441 -19.022,0 -34.4421,-15.42 -34.4421,-34.441 0,-19.021 15.4201,-34.441 34.4421,-34.441 19.02,0 34.4401,15.42 34.4401,34.441 z"
         style="fill:none;stroke:#000000;stroke-width:0.108;stroke-linecap:round;stroke-linejoin:round;stroke-miterlimit:10;stroke-dasharray:none;stroke-opacity:1"
         id="path220-1-7"
         inkscape:connector-curvature="0" /><path
         d="m 969.73225,412.7421 c 0,19.021 -15.42,34.44 -34.44,34.44 -19.02203,0 -34.44203,-15.419 -34.44203,-34.44 0,-19.02101 15.42,-34.441 34.44203,-34.441 19.02,0 34.44,15.41999 34.44,34.441 z"
         style="fill:none;stroke:#000000;stroke-width:0.108;stroke-linecap:round;stroke-linejoin:round;stroke-miterlimit:10;stroke-dasharray:none;stroke-opacity:1"
         id="path184-9"
         inkscape:connector-curvature="0" /><path
         d="m 893.19775,378.72529 c 0,19.021 -15.42,34.44 -34.44,34.44 -19.02203,0 -34.44203,-15.419 -34.44203,-34.44 0,-19.02099 15.42,-34.441 34.44203,-34.441 19.02,0 34.44,15.42001 34.44,34.441 z"
         style="fill:none;stroke:#000000;stroke-width:0.108;stroke-linecap:round;stroke-linejoin:round;stroke-miterlimit:10;stroke-dasharray:none;stroke-opacity:1"
         id="path184-3-9"
         inkscape:connector-curvature="0" /><path
         d="m 931.46492,290.85128 c 0,19.021 -15.42,34.44 -34.43992,34.44 -19.02203,0 -34.44203,-15.419 -34.44203,-34.44 0,-19.021 15.42,-34.441 34.44203,-34.441 19.01992,0 34.43992,15.42 34.43992,34.441 z"
         style="fill:none;stroke:#000000;stroke-width:0.108;stroke-linecap:round;stroke-linejoin:round;stroke-miterlimit:10;stroke-dasharray:none;stroke-opacity:1"
         id="path184-3-2-2"
         inkscape:connector-curvature="0" /></g></g></svg>
